<?xml version="1.0" standalone="no"?>
<!DOCTYPE svg PUBLIC "-//W3C//DTD SVG 20010904//EN"
 "http://www.w3.org/TR/2001/REC-SVG-20010904/DTD/svg10.dtd">
<svg version="1.0" xmlns="http://www.w3.org/2000/svg"
 width="512.000000pt" height="512.000000pt" viewBox="0 0 512.000000 512.000000"
 preserveAspectRatio="xMidYMid meet">
<metadata>
Created by potrace 1.11, written by Peter Selinger 2001-2013
</metadata>
<g transform="translate(0.000000,512.000000) scale(0.100000,-0.100000)"
fill="#000000" stroke="none">
<path d="M2449 5095 c-103 -28 -198 -100 -280 -210 -24 -33 -47 -62 -50 -65
-3 -3 -27 -50 -54 -105 -62 -129 -116 -281 -150 -425 -15 -63 -31 -119 -35
-123 -4 -5 -31 6 -61 24 -88 52 -325 166 -364 175 -5 1 -32 11 -60 22 -117 46
-265 75 -385 76 -130 1 -177 -10 -246 -57 -100 -67 -138 -167 -132 -353 1 -63
6 -114 9 -114 3 0 11 -30 19 -67 7 -38 21 -90 30 -118 17 -50 17 -50 -7 -87
-64 -95 -61 -218 5 -308 45 -61 105 -97 179 -107 25 -3 55 -15 66 -26 19 -19
19 -20 -158 -78 -388 -129 -637 -293 -731 -484 -31 -63 -39 -90 -40 -144 -8
-230 213 -425 641 -566 72 -24 163 -51 202 -60 40 -9 73 -20 73 -22 0 -3 -13
-27 -29 -52 -79 -129 -190 -392 -232 -551 -30 -114 -33 -308 -6 -390 34 -99
88 -156 190 -199 55 -22 76 -25 182 -25 129 1 203 16 372 75 91 32 329 145
420 199 l51 31 16 -58 c110 -392 217 -613 372 -769 214 -213 472 -161 669 136
39 59 145 260 145 276 0 3 6 20 14 37 18 40 77 220 101 309 l17 66 52 -30 c93
-56 357 -188 386 -193 3 0 41 -13 85 -27 238 -80 423 -86 555 -18 249 127 233
524 -42 1041 -37 70 -78 144 -92 164 -14 21 -23 41 -21 46 3 4 22 11 43 15 20
4 107 31 194 60 86 30 163 54 171 54 7 0 22 -9 31 -19 10 -11 42 -29 72 -41
162 -66 346 48 360 224 3 28 1 64 -4 81 -7 25 -4 37 24 75 68 95 88 148 89
235 0 69 -4 88 -30 140 -36 71 -126 166 -215 225 -151 100 -391 202 -627 265
l-61 17 30 52 c119 201 228 478 253 641 8 56 8 175 -1 221 -55 296 -381 372
-831 193 -92 -36 -274 -126 -351 -173 -67 -40 -68 -41 -70 -23 0 6 -3 19 -5
27 -2 8 -7 29 -11 45 -15 57 -75 240 -101 305 l-25 65 30 60 c62 123 28 263
-83 342 -71 50 -158 67 -221 43 -19 -7 -40 -4 -83 11 -70 25 -191 32 -254 14z
m137 -284 c1 -108 53 -194 148 -244 43 -22 158 -30 202 -14 19 7 25 -1 57 -80
60 -149 127 -358 116 -367 -2 -1 -26 -18 -54 -36 -109 -73 -227 -160 -362
-267 -78 -62 -147 -113 -152 -113 -6 0 -46 28 -89 61 -42 34 -88 70 -102 80
-80 60 -149 110 -215 158 -41 29 -73 56 -71 60 2 3 7 24 10 45 8 52 41 171 78
281 59 178 154 351 236 428 41 40 120 76 162 75 l36 0 0 -67z m-1321 -526
c160 -31 403 -127 555 -218 19 -11 36 -21 37 -22 1 -1 -2 -17 -7 -36 -9 -35
-17 -81 -35 -194 -3 -22 -8 -51 -10 -65 -8 -46 -14 -85 -19 -140 -3 -30 -8
-64 -10 -75 -2 -11 -7 -57 -11 -103 -4 -45 -10 -84 -14 -86 -3 -2 -33 -7 -66
-11 -87 -9 -318 -44 -400 -60 -134 -27 -123 -28 -151 16 -25 40 -25 40 -6 72
67 114 58 239 -23 335 -34 40 -110 80 -169 88 l-44 6 -17 82 c-21 94 -23 205
-5 262 26 80 89 136 172 154 43 9 166 6 223 -5z m2858 -71 c58 -19 128 -84
152 -140 26 -61 30 -176 10 -274 -24 -120 -56 -204 -137 -366 l-70 -141 -98
17 c-92 17 -127 22 -240 36 -25 3 -58 7 -75 9 -16 2 -66 7 -110 10 -44 4 -91
9 -105 10 -14 2 -45 4 -70 4 -36 1 -46 5 -47 19 -1 23 -12 120 -17 152 -2 14
-10 66 -16 115 -6 50 -13 99 -15 110 -7 46 -26 152 -30 172 -4 18 8 29 76 68
119 68 242 126 257 120 7 -2 10 0 7 5 -5 9 9 14 18 8 2 -2 10 2 18 8 8 7 46
22 84 34 155 48 307 57 408 24z m-1928 -393 c28 -20 55 -39 60 -44 6 -4 53
-39 105 -78 52 -38 96 -73 98 -78 2 -6 -99 -98 -231 -210 -31 -26 -28 -25
-167 -36 -52 -4 -99 -9 -104 -12 -9 -6 -2 66 20 207 8 52 17 106 19 120 5 41
35 203 41 223 5 15 12 13 57 -20 29 -20 75 -53 102 -72z m965 75 c0 -3 6 -35
14 -73 8 -37 17 -88 20 -113 3 -25 8 -56 11 -70 2 -14 9 -61 15 -105 5 -44 13
-95 16 -113 l6 -32 -148 6 c-127 5 -183 9 -216 13 -6 1 -144 115 -177 146 -11
11 7 28 105 102 66 50 148 110 184 134 36 25 85 59 109 77 40 29 61 39 61 28z
m-430 -489 c0 -1 -54 -2 -120 -3 -66 0 -117 3 -113 7 5 4 33 27 63 52 l54 45
58 -50 c32 -27 58 -51 58 -51z m240 -209 c19 -15 99 -92 178 -171 l143 -143 4
-90 c5 -86 8 -367 6 -487 l-1 -58 -142 -142 c-79 -79 -177 -173 -217 -210 -65
-58 -80 -67 -115 -68 -23 -1 -57 -3 -76 -5 -19 -1 -109 -5 -200 -9 l-165 -6
-75 68 c-136 123 -370 365 -363 376 3 5 2 7 -4 4 -6 -4 -20 4 -32 17 -21 22
-21 29 -19 258 1 130 4 253 6 274 4 33 26 59 188 223 l183 185 78 5 c43 4 193
6 333 6 l255 0 35 -27z m290 3 c3 -1 6 -9 6 -18 1 -10 4 -48 7 -85 4 -38 5
-68 4 -68 -1 0 -43 41 -92 91 l-90 91 80 -6 c44 -3 82 -5 85 -5z m-1270 -14
c0 -2 -16 -18 -35 -37 l-34 -33 3 29 c2 16 4 32 5 37 1 6 61 11 61 4z m1535
-13 c33 -3 71 -7 84 -9 13 -2 45 -7 70 -10 58 -8 218 -34 253 -41 l27 -5 -72
-106 c-97 -142 -91 -133 -180 -255 -43 -60 -82 -108 -85 -107 -4 0 -35 35 -70
77 -34 42 -87 104 -117 137 -32 36 -55 70 -56 85 -1 14 -2 39 -4 55 -1 17 -6
68 -9 113 l-7 84 53 -6 c29 -3 80 -8 113 -12z m-1791 -82 c-2 -37 -6 -93 -8
-125 -4 -61 -11 -70 -156 -230 l-26 -28 -34 48 c-19 26 -40 54 -47 61 -24 25
-185 253 -181 257 5 6 243 53 303 60 28 3 66 9 85 14 71 15 69 16 64 -57z
m2427 -32 c204 -53 452 -156 571 -237 160 -107 196 -199 125 -310 -6 -10 -17
-9 -48 3 -50 21 -149 15 -203 -11 -97 -47 -151 -144 -144 -263 l3 -66 -94 -38
c-90 -37 -239 -85 -291 -95 -23 -4 -34 9 -115 128 -50 74 -134 191 -187 262
l-97 129 87 117 c48 64 89 118 92 121 3 3 19 25 35 50 16 25 32 47 35 50 3 3
32 47 65 97 41 63 65 91 75 88 8 -3 49 -14 91 -25z m-3088 -45 c7 -16 171
-234 265 -350 91 -112 87 -106 76 -113 -5 -4 -25 -27 -44 -52 -19 -25 -37 -47
-41 -50 -16 -13 -206 -269 -276 -371 l-79 -116 -86 22 c-491 127 -725 354
-609 589 82 167 296 304 651 417 52 17 100 32 105 34 21 7 33 4 38 -10z m2410
-353 c43 -52 77 -97 77 -101 0 -7 -121 -154 -155 -189 -10 -11 -12 1 -12 70 0
48 5 86 11 90 8 6 8 8 0 8 -7 0 -12 39 -13 117 -1 67 2 113 7 108 5 -6 43 -52
85 -103z m-1770 -84 c-2 -75 -2 -75 -23 -48 -11 14 -20 29 -20 34 0 7 39 56
44 56 1 0 0 -19 -1 -42z m2085 -324 c26 -30 161 -239 157 -242 -9 -10 -288
-65 -508 -102 -64 -10 -93 -7 -83 8 2 4 7 52 11 107 9 128 12 167 14 181 1 11
16 29 74 94 18 19 61 70 96 112 l64 78 83 -113 c46 -61 87 -117 92 -123z
m-2112 0 c31 -38 34 -47 39 -125 4 -67 9 -150 17 -259 2 -27 -5 -30 -49 -25
-117 13 -290 37 -337 46 -28 5 -73 12 -101 15 -27 3 -53 9 -57 13 -9 8 103
173 240 355 l106 140 53 -60 c30 -32 70 -77 89 -100z m1599 -221 c-5 -68 -15
-147 -18 -150 -3 -2 -79 -13 -133 -19 -27 -2 -62 -7 -79 -10 -26 -4 -12 12 99
120 71 70 131 126 133 126 2 0 2 -30 -2 -67z m-1308 -82 c18 -19 29 -39 26
-44 -3 -6 -1 -7 6 -3 7 5 32 -12 63 -42 l51 -49 -79 4 c-112 6 -119 8 -120 29
-1 10 -5 53 -9 94 -8 83 -8 84 62 11z m2067 -69 c61 -97 177 -334 192 -391 2
-9 15 -56 30 -106 36 -127 37 -261 1 -338 -26 -58 -43 -79 -92 -114 -78 -55
-236 -63 -395 -19 -147 40 -227 76 -492 219 -44 24 -44 14 7 280 12 64 14 74
19 112 3 22 8 51 10 65 3 14 10 67 17 118 7 52 17 92 23 93 6 0 19 2 28 4 9 2
36 6 60 10 24 3 52 8 63 10 11 1 38 5 60 9 118 16 406 72 442 85 2 1 14 -16
27 -37z m-2828 -61 c27 -5 67 -12 89 -15 23 -4 50 -8 61 -10 11 -2 47 -7 79
-11 33 -4 68 -9 78 -11 10 -2 64 -8 120 -14 56 -7 104 -13 106 -15 2 -2 5 -17
6 -32 6 -62 16 -150 20 -178 2 -16 7 -57 10 -90 4 -33 8 -67 10 -75 2 -8 7
-37 10 -65 3 -27 8 -61 11 -75 7 -29 10 -50 18 -104 4 -21 9 -42 11 -47 3 -4
-43 -34 -102 -65 -342 -184 -611 -241 -752 -162 -176 99 -167 367 24 763 69
143 114 215 135 215 9 0 39 -4 66 -9z m2040 -68 c-3 -21 -8 -58 -11 -83 -3
-25 -8 -52 -10 -60 -2 -8 -6 -33 -9 -55 -4 -22 -8 -51 -11 -65 -2 -14 -7 -43
-10 -65 -4 -22 -8 -44 -9 -50 -1 -5 -8 -43 -16 -82 -7 -40 -16 -73 -20 -73 -8
0 -196 128 -259 177 -9 7 -56 42 -106 79 -49 36 -94 70 -98 74 -5 4 36 45 90
91 54 46 104 89 111 96 7 7 28 13 45 14 42 1 94 5 137 12 19 3 64 9 100 13 36
3 67 8 69 10 11 10 12 1 7 -33z m-1081 -32 c45 -1 55 -6 101 -49 65 -60 152
-135 170 -145 8 -4 14 -15 14 -23 0 -11 -8 -9 -33 10 -99 76 -231 77 -329 3
-44 -33 -97 -116 -98 -151 0 -42 -11 -4 -25 90 -8 54 -17 108 -19 119 -2 11
-7 50 -11 88 l-7 67 93 -4 c52 -2 117 -5 144 -5z m535 -22 c-19 -17 -49 -42
-67 -56 l-32 -25 -60 51 -61 50 33 3 c17 2 75 4 127 5 l95 3 -35 -31z m0 -390
c154 -122 187 -147 318 -235 65 -45 82 -62 82 -81 0 -38 -78 -269 -125 -370
-56 -119 -106 -195 -175 -263 -74 -74 -136 -103 -217 -103 -216 1 -415 279
-531 744 l-19 77 23 10 c18 9 28 7 46 -7 86 -66 231 -59 319 17 89 77 126 194
88 285 -11 26 -10 31 6 43 10 8 23 10 29 6 6 -5 76 -60 156 -123z"/>
<path d="M2500 3089 c-70 -11 -159 -45 -217 -84 -51 -34 -153 -131 -153 -146
0 -4 -6 -14 -12 -21 -46 -48 -91 -205 -87 -307 6 -152 57 -270 163 -377 75
-75 171 -130 270 -153 63 -15 206 -12 265 6 234 70 390 261 408 498 14 197
-82 389 -253 502 -102 68 -261 102 -384 82z"/>
</g>
</svg>
